#format: frame checksums
#version: 2
#hash: MD5
#tb 0: 1/96000
#media_type 0: audio
#codec_id 0: pcm_s24le
#sample_rate 0: 96000
#channel_layout_name 0: 5.1(side)
#stream#, dts,        pts, duration,     size, hash
0,          0,          0,     1024,    18432, 0a675f172b0e1a171c46dfaa4f1d0f00
0,       1024,       1024,     1024,    18432, f9debe3f07be68533bf0295e3d2ba68a
0,       2048,       2048,     1024,    18432, 0a6efad6cc824656594d5d7abce1e547
0,       3072,       3072,     1024,    18432, a1beb9f5afcf72b99671a7cef8c35505
0,       4096,       4096,     1024,    18432, e73de9b6688ec463178f694540f71d61
0,       5120,       5120,     1024,    18432, e2e326c2f61d28ad11cea665ea638ae4
